<mxfile host="app.diagrams.net" modified="2023-05-08T11:38:53.468Z" agent="Mozilla/5.0 (Windows NT 10.0; Win64; x64) AppleWebKit/537.36 (KHTML, like Gecko) Chrome/112.0.0.0 Safari/537.36" etag="LCPBqiZ8QZdXkrWtFgaS" version="21.2.9" type="device">
  <diagram name="Page-1" id="wOODXqnug_bqNHKYsRzY">
    <mxGraphModel dx="1434" dy="796" grid="1" gridSize="10" guides="1" tooltips="1" connect="1" arrows="1" fold="1" page="1" pageScale="1" pageWidth="1169" pageHeight="827" math="0" shadow="0">
      <root>
        <mxCell id="0" />
        <mxCell id="1" parent="0" />
        <mxCell id="FfIghp_C7iLB7WoV9WGp-1" value="" style="whiteSpace=wrap;html=1;aspect=fixed;" vertex="1" parent="1">
          <mxGeometry x="210" y="110" width="150" height="150" as="geometry" />
        </mxCell>
        <mxCell id="FfIghp_C7iLB7WoV9WGp-2" value="2 days" style="whiteSpace=wrap;html=1;aspect=fixed;" vertex="1" parent="1">
          <mxGeometry x="210" y="110" width="50" height="50" as="geometry" />
        </mxCell>
        <mxCell id="FfIghp_C7iLB7WoV9WGp-4" value="3 days" style="whiteSpace=wrap;html=1;aspect=fixed;" vertex="1" parent="1">
          <mxGeometry x="260" y="110" width="50" height="50" as="geometry" />
        </mxCell>
        <mxCell id="FfIghp_C7iLB7WoV9WGp-5" value="2 days" style="whiteSpace=wrap;html=1;aspect=fixed;" vertex="1" parent="1">
          <mxGeometry x="310" y="110" width="50" height="50" as="geometry" />
        </mxCell>
        <mxCell id="FfIghp_C7iLB7WoV9WGp-8" value="3 days&lt;br&gt;&lt;span style=&quot;white-space: pre;&quot;&gt;	&lt;/span&gt;" style="whiteSpace=wrap;html=1;aspect=fixed;" vertex="1" parent="1">
          <mxGeometry x="210" y="210" width="50" height="50" as="geometry" />
        </mxCell>
        <mxCell id="FfIghp_C7iLB7WoV9WGp-9" value="1 day" style="whiteSpace=wrap;html=1;aspect=fixed;" vertex="1" parent="1">
          <mxGeometry x="260" y="210" width="50" height="50" as="geometry" />
        </mxCell>
        <mxCell id="FfIghp_C7iLB7WoV9WGp-10" value="4 days" style="whiteSpace=wrap;html=1;aspect=fixed;" vertex="1" parent="1">
          <mxGeometry x="310" y="210" width="50" height="50" as="geometry" />
        </mxCell>
        <mxCell id="FfIghp_C7iLB7WoV9WGp-11" value="Task A" style="rounded=0;whiteSpace=wrap;html=1;" vertex="1" parent="1">
          <mxGeometry x="210" y="160" width="150" height="50" as="geometry" />
        </mxCell>
        <mxCell id="FfIghp_C7iLB7WoV9WGp-14" value="" style="endArrow=classic;html=1;rounded=0;entryX=0;entryY=0.5;entryDx=0;entryDy=0;" edge="1" parent="1" target="FfIghp_C7iLB7WoV9WGp-2">
          <mxGeometry width="50" height="50" relative="1" as="geometry">
            <mxPoint x="90" y="60" as="sourcePoint" />
            <mxPoint x="450" y="380" as="targetPoint" />
            <Array as="points">
              <mxPoint x="90" y="130" />
            </Array>
          </mxGeometry>
        </mxCell>
        <mxCell id="FfIghp_C7iLB7WoV9WGp-15" value="" style="endArrow=classic;html=1;rounded=0;entryX=0.5;entryY=0;entryDx=0;entryDy=0;" edge="1" parent="1" target="FfIghp_C7iLB7WoV9WGp-4">
          <mxGeometry width="50" height="50" relative="1" as="geometry">
            <mxPoint x="285" y="60" as="sourcePoint" />
            <mxPoint x="310" y="40" as="targetPoint" />
          </mxGeometry>
        </mxCell>
        <mxCell id="FfIghp_C7iLB7WoV9WGp-17" value="" style="endArrow=classic;html=1;rounded=0;entryX=1;entryY=0.5;entryDx=0;entryDy=0;" edge="1" parent="1" target="FfIghp_C7iLB7WoV9WGp-5">
          <mxGeometry width="50" height="50" relative="1" as="geometry">
            <mxPoint x="410" y="70" as="sourcePoint" />
            <mxPoint x="530" y="145" as="targetPoint" />
            <Array as="points">
              <mxPoint x="410" y="140" />
            </Array>
          </mxGeometry>
        </mxCell>
        <mxCell id="FfIghp_C7iLB7WoV9WGp-18" value="" style="endArrow=classic;html=1;rounded=0;entryX=0;entryY=0.5;entryDx=0;entryDy=0;" edge="1" parent="1" target="FfIghp_C7iLB7WoV9WGp-8">
          <mxGeometry width="50" height="50" relative="1" as="geometry">
            <mxPoint x="80" y="340" as="sourcePoint" />
            <mxPoint x="200" y="325" as="targetPoint" />
            <Array as="points">
              <mxPoint x="80" y="240" />
            </Array>
          </mxGeometry>
        </mxCell>
        <mxCell id="FfIghp_C7iLB7WoV9WGp-19" value="" style="endArrow=classic;html=1;rounded=0;entryX=1;entryY=0.5;entryDx=0;entryDy=0;" edge="1" parent="1" target="FfIghp_C7iLB7WoV9WGp-10">
          <mxGeometry width="50" height="50" relative="1" as="geometry">
            <mxPoint x="430" y="355" as="sourcePoint" />
            <mxPoint x="560" y="250" as="targetPoint" />
            <Array as="points">
              <mxPoint x="430" y="255" />
            </Array>
          </mxGeometry>
        </mxCell>
        <mxCell id="FfIghp_C7iLB7WoV9WGp-20" value="" style="endArrow=classic;html=1;rounded=0;entryX=0.5;entryY=1;entryDx=0;entryDy=0;" edge="1" parent="1" target="FfIghp_C7iLB7WoV9WGp-9">
          <mxGeometry width="50" height="50" relative="1" as="geometry">
            <mxPoint x="285" y="330" as="sourcePoint" />
            <mxPoint x="280" y="320" as="targetPoint" />
          </mxGeometry>
        </mxCell>
        <mxCell id="FfIghp_C7iLB7WoV9WGp-21" value="Early Start" style="text;html=1;strokeColor=none;fillColor=none;align=center;verticalAlign=middle;whiteSpace=wrap;rounded=0;" vertex="1" parent="1">
          <mxGeometry x="60" y="20" width="60" height="30" as="geometry" />
        </mxCell>
        <mxCell id="FfIghp_C7iLB7WoV9WGp-22" value="Duration" style="text;html=1;strokeColor=none;fillColor=none;align=center;verticalAlign=middle;whiteSpace=wrap;rounded=0;" vertex="1" parent="1">
          <mxGeometry x="250" y="30" width="60" height="30" as="geometry" />
        </mxCell>
        <mxCell id="FfIghp_C7iLB7WoV9WGp-23" value="Early Finish" style="text;html=1;strokeColor=none;fillColor=none;align=center;verticalAlign=middle;whiteSpace=wrap;rounded=0;" vertex="1" parent="1">
          <mxGeometry x="380" y="30" width="60" height="30" as="geometry" />
        </mxCell>
        <mxCell id="FfIghp_C7iLB7WoV9WGp-24" value="Late Start" style="text;html=1;strokeColor=none;fillColor=none;align=center;verticalAlign=middle;whiteSpace=wrap;rounded=0;" vertex="1" parent="1">
          <mxGeometry x="50" y="340" width="60" height="30" as="geometry" />
        </mxCell>
        <mxCell id="FfIghp_C7iLB7WoV9WGp-25" value="Float" style="text;html=1;strokeColor=none;fillColor=none;align=center;verticalAlign=middle;whiteSpace=wrap;rounded=0;" vertex="1" parent="1">
          <mxGeometry x="260" y="330" width="60" height="30" as="geometry" />
        </mxCell>
        <mxCell id="FfIghp_C7iLB7WoV9WGp-26" value="Late Finish" style="text;html=1;strokeColor=none;fillColor=none;align=center;verticalAlign=middle;whiteSpace=wrap;rounded=0;" vertex="1" parent="1">
          <mxGeometry x="400" y="360" width="60" height="30" as="geometry" />
        </mxCell>
        <mxCell id="FfIghp_C7iLB7WoV9WGp-128" value="" style="whiteSpace=wrap;html=1;aspect=fixed;" vertex="1" parent="1">
          <mxGeometry x="1170" y="130" width="150" height="150" as="geometry" />
        </mxCell>
        <mxCell id="FfIghp_C7iLB7WoV9WGp-129" value="4 days" style="whiteSpace=wrap;html=1;aspect=fixed;" vertex="1" parent="1">
          <mxGeometry x="1170" y="130" width="50" height="50" as="geometry" />
        </mxCell>
        <mxCell id="FfIghp_C7iLB7WoV9WGp-130" value="6 days" style="whiteSpace=wrap;html=1;aspect=fixed;" vertex="1" parent="1">
          <mxGeometry x="1220" y="130" width="50" height="50" as="geometry" />
        </mxCell>
        <mxCell id="FfIghp_C7iLB7WoV9WGp-131" value="4 days" style="whiteSpace=wrap;html=1;aspect=fixed;" vertex="1" parent="1">
          <mxGeometry x="1270" y="130" width="50" height="50" as="geometry" />
        </mxCell>
        <mxCell id="FfIghp_C7iLB7WoV9WGp-132" value="6 days" style="whiteSpace=wrap;html=1;aspect=fixed;" vertex="1" parent="1">
          <mxGeometry x="1170" y="230" width="50" height="50" as="geometry" />
        </mxCell>
        <mxCell id="FfIghp_C7iLB7WoV9WGp-133" value="2 days" style="whiteSpace=wrap;html=1;aspect=fixed;" vertex="1" parent="1">
          <mxGeometry x="1220" y="230" width="50" height="50" as="geometry" />
        </mxCell>
        <mxCell id="FfIghp_C7iLB7WoV9WGp-134" value="8 days" style="whiteSpace=wrap;html=1;aspect=fixed;" vertex="1" parent="1">
          <mxGeometry x="1270" y="230" width="50" height="50" as="geometry" />
        </mxCell>
        <mxCell id="FfIghp_C7iLB7WoV9WGp-135" value="Task C" style="rounded=0;whiteSpace=wrap;html=1;" vertex="1" parent="1">
          <mxGeometry x="1170" y="180" width="150" height="50" as="geometry" />
        </mxCell>
        <mxCell id="FfIghp_C7iLB7WoV9WGp-136" value="" style="endArrow=classic;html=1;rounded=0;entryX=0;entryY=0.5;entryDx=0;entryDy=0;" edge="1" parent="1" target="FfIghp_C7iLB7WoV9WGp-129">
          <mxGeometry width="50" height="50" relative="1" as="geometry">
            <mxPoint x="1050" y="80" as="sourcePoint" />
            <mxPoint x="1410" y="400" as="targetPoint" />
            <Array as="points">
              <mxPoint x="1050" y="150" />
            </Array>
          </mxGeometry>
        </mxCell>
        <mxCell id="FfIghp_C7iLB7WoV9WGp-137" value="" style="endArrow=classic;html=1;rounded=0;entryX=0.5;entryY=0;entryDx=0;entryDy=0;" edge="1" parent="1" target="FfIghp_C7iLB7WoV9WGp-130">
          <mxGeometry width="50" height="50" relative="1" as="geometry">
            <mxPoint x="1245" y="80" as="sourcePoint" />
            <mxPoint x="1270" y="60" as="targetPoint" />
          </mxGeometry>
        </mxCell>
        <mxCell id="FfIghp_C7iLB7WoV9WGp-138" value="" style="endArrow=classic;html=1;rounded=0;entryX=1;entryY=0.5;entryDx=0;entryDy=0;" edge="1" parent="1" target="FfIghp_C7iLB7WoV9WGp-131">
          <mxGeometry width="50" height="50" relative="1" as="geometry">
            <mxPoint x="1370" y="90" as="sourcePoint" />
            <mxPoint x="1490" y="165" as="targetPoint" />
            <Array as="points">
              <mxPoint x="1370" y="160" />
            </Array>
          </mxGeometry>
        </mxCell>
        <mxCell id="FfIghp_C7iLB7WoV9WGp-139" value="" style="endArrow=classic;html=1;rounded=0;entryX=0;entryY=0.5;entryDx=0;entryDy=0;" edge="1" parent="1" target="FfIghp_C7iLB7WoV9WGp-132">
          <mxGeometry width="50" height="50" relative="1" as="geometry">
            <mxPoint x="1040" y="360" as="sourcePoint" />
            <mxPoint x="1160" y="345" as="targetPoint" />
            <Array as="points">
              <mxPoint x="1040" y="260" />
            </Array>
          </mxGeometry>
        </mxCell>
        <mxCell id="FfIghp_C7iLB7WoV9WGp-140" value="" style="endArrow=classic;html=1;rounded=0;entryX=1;entryY=0.5;entryDx=0;entryDy=0;" edge="1" parent="1" target="FfIghp_C7iLB7WoV9WGp-134">
          <mxGeometry width="50" height="50" relative="1" as="geometry">
            <mxPoint x="1390" y="375" as="sourcePoint" />
            <mxPoint x="1520" y="270" as="targetPoint" />
            <Array as="points">
              <mxPoint x="1390" y="275" />
            </Array>
          </mxGeometry>
        </mxCell>
        <mxCell id="FfIghp_C7iLB7WoV9WGp-141" value="" style="endArrow=classic;html=1;rounded=0;entryX=0.5;entryY=1;entryDx=0;entryDy=0;" edge="1" parent="1" target="FfIghp_C7iLB7WoV9WGp-133">
          <mxGeometry width="50" height="50" relative="1" as="geometry">
            <mxPoint x="1245" y="350" as="sourcePoint" />
            <mxPoint x="1240" y="340" as="targetPoint" />
          </mxGeometry>
        </mxCell>
        <mxCell id="FfIghp_C7iLB7WoV9WGp-142" value="Early Start" style="text;html=1;strokeColor=none;fillColor=none;align=center;verticalAlign=middle;whiteSpace=wrap;rounded=0;" vertex="1" parent="1">
          <mxGeometry x="1020" y="40" width="60" height="30" as="geometry" />
        </mxCell>
        <mxCell id="FfIghp_C7iLB7WoV9WGp-143" value="Duration" style="text;html=1;strokeColor=none;fillColor=none;align=center;verticalAlign=middle;whiteSpace=wrap;rounded=0;" vertex="1" parent="1">
          <mxGeometry x="1210" y="50" width="60" height="30" as="geometry" />
        </mxCell>
        <mxCell id="FfIghp_C7iLB7WoV9WGp-144" value="Early Finish" style="text;html=1;strokeColor=none;fillColor=none;align=center;verticalAlign=middle;whiteSpace=wrap;rounded=0;" vertex="1" parent="1">
          <mxGeometry x="1340" y="50" width="60" height="30" as="geometry" />
        </mxCell>
        <mxCell id="FfIghp_C7iLB7WoV9WGp-145" value="Late Start" style="text;html=1;strokeColor=none;fillColor=none;align=center;verticalAlign=middle;whiteSpace=wrap;rounded=0;" vertex="1" parent="1">
          <mxGeometry x="1010" y="360" width="60" height="30" as="geometry" />
        </mxCell>
        <mxCell id="FfIghp_C7iLB7WoV9WGp-146" value="Float" style="text;html=1;strokeColor=none;fillColor=none;align=center;verticalAlign=middle;whiteSpace=wrap;rounded=0;" vertex="1" parent="1">
          <mxGeometry x="1220" y="350" width="60" height="30" as="geometry" />
        </mxCell>
        <mxCell id="FfIghp_C7iLB7WoV9WGp-147" value="Late Finish" style="text;html=1;strokeColor=none;fillColor=none;align=center;verticalAlign=middle;whiteSpace=wrap;rounded=0;" vertex="1" parent="1">
          <mxGeometry x="1360" y="380" width="60" height="30" as="geometry" />
        </mxCell>
        <mxCell id="FfIghp_C7iLB7WoV9WGp-148" value="" style="whiteSpace=wrap;html=1;aspect=fixed;" vertex="1" parent="1">
          <mxGeometry x="670" y="120" width="150" height="150" as="geometry" />
        </mxCell>
        <mxCell id="FfIghp_C7iLB7WoV9WGp-149" value="2 days" style="whiteSpace=wrap;html=1;aspect=fixed;" vertex="1" parent="1">
          <mxGeometry x="670" y="120" width="50" height="50" as="geometry" />
        </mxCell>
        <mxCell id="FfIghp_C7iLB7WoV9WGp-150" value="2 days" style="whiteSpace=wrap;html=1;aspect=fixed;" vertex="1" parent="1">
          <mxGeometry x="720" y="120" width="50" height="50" as="geometry" />
        </mxCell>
        <mxCell id="FfIghp_C7iLB7WoV9WGp-151" value="1 day" style="whiteSpace=wrap;html=1;aspect=fixed;" vertex="1" parent="1">
          <mxGeometry x="770" y="120" width="50" height="50" as="geometry" />
        </mxCell>
        <mxCell id="FfIghp_C7iLB7WoV9WGp-152" value="3 days" style="whiteSpace=wrap;html=1;aspect=fixed;" vertex="1" parent="1">
          <mxGeometry x="670" y="220" width="50" height="50" as="geometry" />
        </mxCell>
        <mxCell id="FfIghp_C7iLB7WoV9WGp-153" value="1 day" style="whiteSpace=wrap;html=1;aspect=fixed;" vertex="1" parent="1">
          <mxGeometry x="720" y="220" width="50" height="50" as="geometry" />
        </mxCell>
        <mxCell id="FfIghp_C7iLB7WoV9WGp-154" value="3 days" style="whiteSpace=wrap;html=1;aspect=fixed;" vertex="1" parent="1">
          <mxGeometry x="770" y="220" width="50" height="50" as="geometry" />
        </mxCell>
        <mxCell id="FfIghp_C7iLB7WoV9WGp-155" value="Task B" style="rounded=0;whiteSpace=wrap;html=1;" vertex="1" parent="1">
          <mxGeometry x="670" y="170" width="150" height="50" as="geometry" />
        </mxCell>
        <mxCell id="FfIghp_C7iLB7WoV9WGp-156" value="" style="endArrow=classic;html=1;rounded=0;entryX=0;entryY=0.5;entryDx=0;entryDy=0;" edge="1" parent="1" target="FfIghp_C7iLB7WoV9WGp-149">
          <mxGeometry width="50" height="50" relative="1" as="geometry">
            <mxPoint x="550" y="70" as="sourcePoint" />
            <mxPoint x="910" y="390" as="targetPoint" />
            <Array as="points">
              <mxPoint x="550" y="140" />
            </Array>
          </mxGeometry>
        </mxCell>
        <mxCell id="FfIghp_C7iLB7WoV9WGp-157" value="" style="endArrow=classic;html=1;rounded=0;entryX=0.5;entryY=0;entryDx=0;entryDy=0;" edge="1" parent="1" target="FfIghp_C7iLB7WoV9WGp-150">
          <mxGeometry width="50" height="50" relative="1" as="geometry">
            <mxPoint x="745" y="70" as="sourcePoint" />
            <mxPoint x="770" y="50" as="targetPoint" />
          </mxGeometry>
        </mxCell>
        <mxCell id="FfIghp_C7iLB7WoV9WGp-158" value="" style="endArrow=classic;html=1;rounded=0;entryX=1;entryY=0.5;entryDx=0;entryDy=0;" edge="1" parent="1" target="FfIghp_C7iLB7WoV9WGp-151">
          <mxGeometry width="50" height="50" relative="1" as="geometry">
            <mxPoint x="870" y="80" as="sourcePoint" />
            <mxPoint x="990" y="155" as="targetPoint" />
            <Array as="points">
              <mxPoint x="870" y="150" />
            </Array>
          </mxGeometry>
        </mxCell>
        <mxCell id="FfIghp_C7iLB7WoV9WGp-159" value="" style="endArrow=classic;html=1;rounded=0;entryX=0;entryY=0.5;entryDx=0;entryDy=0;" edge="1" parent="1" target="FfIghp_C7iLB7WoV9WGp-152">
          <mxGeometry width="50" height="50" relative="1" as="geometry">
            <mxPoint x="540" y="350" as="sourcePoint" />
            <mxPoint x="660" y="335" as="targetPoint" />
            <Array as="points">
              <mxPoint x="540" y="250" />
            </Array>
          </mxGeometry>
        </mxCell>
        <mxCell id="FfIghp_C7iLB7WoV9WGp-160" value="" style="endArrow=classic;html=1;rounded=0;entryX=1;entryY=0.5;entryDx=0;entryDy=0;" edge="1" parent="1" target="FfIghp_C7iLB7WoV9WGp-154">
          <mxGeometry width="50" height="50" relative="1" as="geometry">
            <mxPoint x="890" y="365" as="sourcePoint" />
            <mxPoint x="1020" y="260" as="targetPoint" />
            <Array as="points">
              <mxPoint x="890" y="265" />
            </Array>
          </mxGeometry>
        </mxCell>
        <mxCell id="FfIghp_C7iLB7WoV9WGp-161" value="" style="endArrow=classic;html=1;rounded=0;entryX=0.5;entryY=1;entryDx=0;entryDy=0;" edge="1" parent="1" target="FfIghp_C7iLB7WoV9WGp-153">
          <mxGeometry width="50" height="50" relative="1" as="geometry">
            <mxPoint x="745" y="340" as="sourcePoint" />
            <mxPoint x="740" y="330" as="targetPoint" />
          </mxGeometry>
        </mxCell>
        <mxCell id="FfIghp_C7iLB7WoV9WGp-162" value="Early Start" style="text;html=1;strokeColor=none;fillColor=none;align=center;verticalAlign=middle;whiteSpace=wrap;rounded=0;" vertex="1" parent="1">
          <mxGeometry x="520" y="30" width="60" height="30" as="geometry" />
        </mxCell>
        <mxCell id="FfIghp_C7iLB7WoV9WGp-163" value="Duration" style="text;html=1;strokeColor=none;fillColor=none;align=center;verticalAlign=middle;whiteSpace=wrap;rounded=0;" vertex="1" parent="1">
          <mxGeometry x="710" y="40" width="60" height="30" as="geometry" />
        </mxCell>
        <mxCell id="FfIghp_C7iLB7WoV9WGp-164" value="Early Finish" style="text;html=1;strokeColor=none;fillColor=none;align=center;verticalAlign=middle;whiteSpace=wrap;rounded=0;" vertex="1" parent="1">
          <mxGeometry x="840" y="40" width="60" height="30" as="geometry" />
        </mxCell>
        <mxCell id="FfIghp_C7iLB7WoV9WGp-165" value="Late Start" style="text;html=1;strokeColor=none;fillColor=none;align=center;verticalAlign=middle;whiteSpace=wrap;rounded=0;" vertex="1" parent="1">
          <mxGeometry x="510" y="350" width="60" height="30" as="geometry" />
        </mxCell>
        <mxCell id="FfIghp_C7iLB7WoV9WGp-166" value="Float" style="text;html=1;strokeColor=none;fillColor=none;align=center;verticalAlign=middle;whiteSpace=wrap;rounded=0;" vertex="1" parent="1">
          <mxGeometry x="720" y="340" width="60" height="30" as="geometry" />
        </mxCell>
        <mxCell id="FfIghp_C7iLB7WoV9WGp-167" value="Late Finish" style="text;html=1;strokeColor=none;fillColor=none;align=center;verticalAlign=middle;whiteSpace=wrap;rounded=0;" vertex="1" parent="1">
          <mxGeometry x="860" y="370" width="60" height="30" as="geometry" />
        </mxCell>
        <mxCell id="FfIghp_C7iLB7WoV9WGp-168" value="" style="whiteSpace=wrap;html=1;aspect=fixed;" vertex="1" parent="1">
          <mxGeometry x="225" y="540" width="150" height="150" as="geometry" />
        </mxCell>
        <mxCell id="FfIghp_C7iLB7WoV9WGp-169" value="4 days" style="whiteSpace=wrap;html=1;aspect=fixed;" vertex="1" parent="1">
          <mxGeometry x="225" y="540" width="50" height="50" as="geometry" />
        </mxCell>
        <mxCell id="FfIghp_C7iLB7WoV9WGp-170" value="4 days" style="whiteSpace=wrap;html=1;aspect=fixed;" vertex="1" parent="1">
          <mxGeometry x="275" y="540" width="50" height="50" as="geometry" />
        </mxCell>
        <mxCell id="FfIghp_C7iLB7WoV9WGp-171" value="3 days" style="whiteSpace=wrap;html=1;aspect=fixed;" vertex="1" parent="1">
          <mxGeometry x="325" y="540" width="50" height="50" as="geometry" />
        </mxCell>
        <mxCell id="FfIghp_C7iLB7WoV9WGp-172" value="6 days&lt;br&gt;&lt;span style=&quot;white-space: pre;&quot;&gt;	&lt;/span&gt;" style="whiteSpace=wrap;html=1;aspect=fixed;" vertex="1" parent="1">
          <mxGeometry x="225" y="640" width="50" height="50" as="geometry" />
        </mxCell>
        <mxCell id="FfIghp_C7iLB7WoV9WGp-173" value="2 days" style="whiteSpace=wrap;html=1;aspect=fixed;" vertex="1" parent="1">
          <mxGeometry x="275" y="640" width="50" height="50" as="geometry" />
        </mxCell>
        <mxCell id="FfIghp_C7iLB7WoV9WGp-174" value="6 days" style="whiteSpace=wrap;html=1;aspect=fixed;" vertex="1" parent="1">
          <mxGeometry x="325" y="640" width="50" height="50" as="geometry" />
        </mxCell>
        <mxCell id="FfIghp_C7iLB7WoV9WGp-175" value="Task D" style="rounded=0;whiteSpace=wrap;html=1;" vertex="1" parent="1">
          <mxGeometry x="225" y="590" width="150" height="50" as="geometry" />
        </mxCell>
        <mxCell id="FfIghp_C7iLB7WoV9WGp-176" value="" style="endArrow=classic;html=1;rounded=0;entryX=0;entryY=0.5;entryDx=0;entryDy=0;" edge="1" parent="1" target="FfIghp_C7iLB7WoV9WGp-169">
          <mxGeometry width="50" height="50" relative="1" as="geometry">
            <mxPoint x="105" y="490" as="sourcePoint" />
            <mxPoint x="465" y="810" as="targetPoint" />
            <Array as="points">
              <mxPoint x="105" y="560" />
            </Array>
          </mxGeometry>
        </mxCell>
        <mxCell id="FfIghp_C7iLB7WoV9WGp-177" value="" style="endArrow=classic;html=1;rounded=0;entryX=0.5;entryY=0;entryDx=0;entryDy=0;" edge="1" parent="1" target="FfIghp_C7iLB7WoV9WGp-170">
          <mxGeometry width="50" height="50" relative="1" as="geometry">
            <mxPoint x="300" y="490" as="sourcePoint" />
            <mxPoint x="325" y="470" as="targetPoint" />
          </mxGeometry>
        </mxCell>
        <mxCell id="FfIghp_C7iLB7WoV9WGp-178" value="" style="endArrow=classic;html=1;rounded=0;entryX=1;entryY=0.5;entryDx=0;entryDy=0;" edge="1" parent="1" target="FfIghp_C7iLB7WoV9WGp-171">
          <mxGeometry width="50" height="50" relative="1" as="geometry">
            <mxPoint x="425" y="500" as="sourcePoint" />
            <mxPoint x="545" y="575" as="targetPoint" />
            <Array as="points">
              <mxPoint x="425" y="570" />
            </Array>
          </mxGeometry>
        </mxCell>
        <mxCell id="FfIghp_C7iLB7WoV9WGp-179" value="" style="endArrow=classic;html=1;rounded=0;entryX=0;entryY=0.5;entryDx=0;entryDy=0;" edge="1" parent="1" target="FfIghp_C7iLB7WoV9WGp-172">
          <mxGeometry width="50" height="50" relative="1" as="geometry">
            <mxPoint x="95" y="770" as="sourcePoint" />
            <mxPoint x="215" y="755" as="targetPoint" />
            <Array as="points">
              <mxPoint x="95" y="670" />
            </Array>
          </mxGeometry>
        </mxCell>
        <mxCell id="FfIghp_C7iLB7WoV9WGp-180" value="" style="endArrow=classic;html=1;rounded=0;entryX=1;entryY=0.5;entryDx=0;entryDy=0;" edge="1" parent="1" target="FfIghp_C7iLB7WoV9WGp-174">
          <mxGeometry width="50" height="50" relative="1" as="geometry">
            <mxPoint x="445" y="785" as="sourcePoint" />
            <mxPoint x="575" y="680" as="targetPoint" />
            <Array as="points">
              <mxPoint x="445" y="685" />
            </Array>
          </mxGeometry>
        </mxCell>
        <mxCell id="FfIghp_C7iLB7WoV9WGp-181" value="" style="endArrow=classic;html=1;rounded=0;entryX=0.5;entryY=1;entryDx=0;entryDy=0;" edge="1" parent="1" target="FfIghp_C7iLB7WoV9WGp-173">
          <mxGeometry width="50" height="50" relative="1" as="geometry">
            <mxPoint x="300" y="760" as="sourcePoint" />
            <mxPoint x="295" y="750" as="targetPoint" />
          </mxGeometry>
        </mxCell>
        <mxCell id="FfIghp_C7iLB7WoV9WGp-182" value="Early Start" style="text;html=1;strokeColor=none;fillColor=none;align=center;verticalAlign=middle;whiteSpace=wrap;rounded=0;" vertex="1" parent="1">
          <mxGeometry x="75" y="450" width="60" height="30" as="geometry" />
        </mxCell>
        <mxCell id="FfIghp_C7iLB7WoV9WGp-183" value="Duration" style="text;html=1;strokeColor=none;fillColor=none;align=center;verticalAlign=middle;whiteSpace=wrap;rounded=0;" vertex="1" parent="1">
          <mxGeometry x="265" y="460" width="60" height="30" as="geometry" />
        </mxCell>
        <mxCell id="FfIghp_C7iLB7WoV9WGp-184" value="Early Finish" style="text;html=1;strokeColor=none;fillColor=none;align=center;verticalAlign=middle;whiteSpace=wrap;rounded=0;" vertex="1" parent="1">
          <mxGeometry x="395" y="460" width="60" height="30" as="geometry" />
        </mxCell>
        <mxCell id="FfIghp_C7iLB7WoV9WGp-185" value="Late Start" style="text;html=1;strokeColor=none;fillColor=none;align=center;verticalAlign=middle;whiteSpace=wrap;rounded=0;" vertex="1" parent="1">
          <mxGeometry x="65" y="770" width="60" height="30" as="geometry" />
        </mxCell>
        <mxCell id="FfIghp_C7iLB7WoV9WGp-186" value="Float" style="text;html=1;strokeColor=none;fillColor=none;align=center;verticalAlign=middle;whiteSpace=wrap;rounded=0;" vertex="1" parent="1">
          <mxGeometry x="275" y="760" width="60" height="30" as="geometry" />
        </mxCell>
        <mxCell id="FfIghp_C7iLB7WoV9WGp-187" value="Late Finish" style="text;html=1;strokeColor=none;fillColor=none;align=center;verticalAlign=middle;whiteSpace=wrap;rounded=0;" vertex="1" parent="1">
          <mxGeometry x="415" y="790" width="60" height="30" as="geometry" />
        </mxCell>
        <mxCell id="FfIghp_C7iLB7WoV9WGp-188" value="" style="whiteSpace=wrap;html=1;aspect=fixed;" vertex="1" parent="1">
          <mxGeometry x="1185" y="560" width="150" height="150" as="geometry" />
        </mxCell>
        <mxCell id="FfIghp_C7iLB7WoV9WGp-189" value="5 days" style="whiteSpace=wrap;html=1;aspect=fixed;" vertex="1" parent="1">
          <mxGeometry x="1185" y="560" width="50" height="50" as="geometry" />
        </mxCell>
        <mxCell id="FfIghp_C7iLB7WoV9WGp-190" value="1 day" style="whiteSpace=wrap;html=1;aspect=fixed;" vertex="1" parent="1">
          <mxGeometry x="1235" y="560" width="50" height="50" as="geometry" />
        </mxCell>
        <mxCell id="FfIghp_C7iLB7WoV9WGp-191" value="12 hours" style="whiteSpace=wrap;html=1;aspect=fixed;" vertex="1" parent="1">
          <mxGeometry x="1285" y="560" width="50" height="50" as="geometry" />
        </mxCell>
        <mxCell id="FfIghp_C7iLB7WoV9WGp-192" value="7 days" style="whiteSpace=wrap;html=1;aspect=fixed;" vertex="1" parent="1">
          <mxGeometry x="1185" y="660" width="50" height="50" as="geometry" />
        </mxCell>
        <mxCell id="FfIghp_C7iLB7WoV9WGp-193" value="2 days" style="whiteSpace=wrap;html=1;aspect=fixed;" vertex="1" parent="1">
          <mxGeometry x="1235" y="660" width="50" height="50" as="geometry" />
        </mxCell>
        <mxCell id="FfIghp_C7iLB7WoV9WGp-194" value="2 days" style="whiteSpace=wrap;html=1;aspect=fixed;" vertex="1" parent="1">
          <mxGeometry x="1285" y="660" width="50" height="50" as="geometry" />
        </mxCell>
        <mxCell id="FfIghp_C7iLB7WoV9WGp-195" value="Task F" style="rounded=0;whiteSpace=wrap;html=1;" vertex="1" parent="1">
          <mxGeometry x="1185" y="610" width="150" height="50" as="geometry" />
        </mxCell>
        <mxCell id="FfIghp_C7iLB7WoV9WGp-196" value="" style="endArrow=classic;html=1;rounded=0;entryX=0;entryY=0.5;entryDx=0;entryDy=0;" edge="1" parent="1" target="FfIghp_C7iLB7WoV9WGp-189">
          <mxGeometry width="50" height="50" relative="1" as="geometry">
            <mxPoint x="1065" y="510" as="sourcePoint" />
            <mxPoint x="1425" y="830" as="targetPoint" />
            <Array as="points">
              <mxPoint x="1065" y="580" />
            </Array>
          </mxGeometry>
        </mxCell>
        <mxCell id="FfIghp_C7iLB7WoV9WGp-197" value="" style="endArrow=classic;html=1;rounded=0;entryX=0.5;entryY=0;entryDx=0;entryDy=0;" edge="1" parent="1" target="FfIghp_C7iLB7WoV9WGp-190">
          <mxGeometry width="50" height="50" relative="1" as="geometry">
            <mxPoint x="1260" y="510" as="sourcePoint" />
            <mxPoint x="1285" y="490" as="targetPoint" />
          </mxGeometry>
        </mxCell>
        <mxCell id="FfIghp_C7iLB7WoV9WGp-198" value="" style="endArrow=classic;html=1;rounded=0;entryX=1;entryY=0.5;entryDx=0;entryDy=0;" edge="1" parent="1" target="FfIghp_C7iLB7WoV9WGp-191">
          <mxGeometry width="50" height="50" relative="1" as="geometry">
            <mxPoint x="1385" y="520" as="sourcePoint" />
            <mxPoint x="1505" y="595" as="targetPoint" />
            <Array as="points">
              <mxPoint x="1385" y="590" />
            </Array>
          </mxGeometry>
        </mxCell>
        <mxCell id="FfIghp_C7iLB7WoV9WGp-199" value="" style="endArrow=classic;html=1;rounded=0;entryX=0;entryY=0.5;entryDx=0;entryDy=0;" edge="1" parent="1" target="FfIghp_C7iLB7WoV9WGp-192">
          <mxGeometry width="50" height="50" relative="1" as="geometry">
            <mxPoint x="1055" y="790" as="sourcePoint" />
            <mxPoint x="1175" y="775" as="targetPoint" />
            <Array as="points">
              <mxPoint x="1055" y="690" />
            </Array>
          </mxGeometry>
        </mxCell>
        <mxCell id="FfIghp_C7iLB7WoV9WGp-200" value="" style="endArrow=classic;html=1;rounded=0;entryX=1;entryY=0.5;entryDx=0;entryDy=0;" edge="1" parent="1" target="FfIghp_C7iLB7WoV9WGp-194">
          <mxGeometry width="50" height="50" relative="1" as="geometry">
            <mxPoint x="1405" y="805" as="sourcePoint" />
            <mxPoint x="1535" y="700" as="targetPoint" />
            <Array as="points">
              <mxPoint x="1405" y="705" />
            </Array>
          </mxGeometry>
        </mxCell>
        <mxCell id="FfIghp_C7iLB7WoV9WGp-201" value="" style="endArrow=classic;html=1;rounded=0;entryX=0.5;entryY=1;entryDx=0;entryDy=0;" edge="1" parent="1" target="FfIghp_C7iLB7WoV9WGp-193">
          <mxGeometry width="50" height="50" relative="1" as="geometry">
            <mxPoint x="1260" y="780" as="sourcePoint" />
            <mxPoint x="1255" y="770" as="targetPoint" />
          </mxGeometry>
        </mxCell>
        <mxCell id="FfIghp_C7iLB7WoV9WGp-202" value="Early Start" style="text;html=1;strokeColor=none;fillColor=none;align=center;verticalAlign=middle;whiteSpace=wrap;rounded=0;" vertex="1" parent="1">
          <mxGeometry x="1035" y="470" width="60" height="30" as="geometry" />
        </mxCell>
        <mxCell id="FfIghp_C7iLB7WoV9WGp-203" value="Duration" style="text;html=1;strokeColor=none;fillColor=none;align=center;verticalAlign=middle;whiteSpace=wrap;rounded=0;" vertex="1" parent="1">
          <mxGeometry x="1225" y="480" width="60" height="30" as="geometry" />
        </mxCell>
        <mxCell id="FfIghp_C7iLB7WoV9WGp-204" value="Early Finish" style="text;html=1;strokeColor=none;fillColor=none;align=center;verticalAlign=middle;whiteSpace=wrap;rounded=0;" vertex="1" parent="1">
          <mxGeometry x="1355" y="480" width="60" height="30" as="geometry" />
        </mxCell>
        <mxCell id="FfIghp_C7iLB7WoV9WGp-205" value="Late Start" style="text;html=1;strokeColor=none;fillColor=none;align=center;verticalAlign=middle;whiteSpace=wrap;rounded=0;" vertex="1" parent="1">
          <mxGeometry x="1025" y="790" width="60" height="30" as="geometry" />
        </mxCell>
        <mxCell id="FfIghp_C7iLB7WoV9WGp-206" value="Float" style="text;html=1;strokeColor=none;fillColor=none;align=center;verticalAlign=middle;whiteSpace=wrap;rounded=0;" vertex="1" parent="1">
          <mxGeometry x="1235" y="780" width="60" height="30" as="geometry" />
        </mxCell>
        <mxCell id="FfIghp_C7iLB7WoV9WGp-207" value="Late Finish" style="text;html=1;strokeColor=none;fillColor=none;align=center;verticalAlign=middle;whiteSpace=wrap;rounded=0;" vertex="1" parent="1">
          <mxGeometry x="1375" y="810" width="60" height="30" as="geometry" />
        </mxCell>
        <mxCell id="FfIghp_C7iLB7WoV9WGp-208" value="" style="whiteSpace=wrap;html=1;aspect=fixed;" vertex="1" parent="1">
          <mxGeometry x="685" y="550" width="150" height="150" as="geometry" />
        </mxCell>
        <mxCell id="FfIghp_C7iLB7WoV9WGp-209" value="10 days" style="whiteSpace=wrap;html=1;aspect=fixed;" vertex="1" parent="1">
          <mxGeometry x="685" y="550" width="50" height="50" as="geometry" />
        </mxCell>
        <mxCell id="FfIghp_C7iLB7WoV9WGp-210" value="3 days" style="whiteSpace=wrap;html=1;aspect=fixed;" vertex="1" parent="1">
          <mxGeometry x="735" y="550" width="50" height="50" as="geometry" />
        </mxCell>
        <mxCell id="FfIghp_C7iLB7WoV9WGp-211" value="2 days" style="whiteSpace=wrap;html=1;aspect=fixed;" vertex="1" parent="1">
          <mxGeometry x="785" y="550" width="50" height="50" as="geometry" />
        </mxCell>
        <mxCell id="FfIghp_C7iLB7WoV9WGp-212" value="13 days" style="whiteSpace=wrap;html=1;aspect=fixed;" vertex="1" parent="1">
          <mxGeometry x="685" y="650" width="50" height="50" as="geometry" />
        </mxCell>
        <mxCell id="FfIghp_C7iLB7WoV9WGp-213" value="3 days" style="whiteSpace=wrap;html=1;aspect=fixed;" vertex="1" parent="1">
          <mxGeometry x="735" y="650" width="50" height="50" as="geometry" />
        </mxCell>
        <mxCell id="FfIghp_C7iLB7WoV9WGp-214" value="4 days" style="whiteSpace=wrap;html=1;aspect=fixed;" vertex="1" parent="1">
          <mxGeometry x="785" y="650" width="50" height="50" as="geometry" />
        </mxCell>
        <mxCell id="FfIghp_C7iLB7WoV9WGp-215" value="Task E" style="rounded=0;whiteSpace=wrap;html=1;" vertex="1" parent="1">
          <mxGeometry x="685" y="600" width="150" height="50" as="geometry" />
        </mxCell>
        <mxCell id="FfIghp_C7iLB7WoV9WGp-216" value="" style="endArrow=classic;html=1;rounded=0;entryX=0;entryY=0.5;entryDx=0;entryDy=0;" edge="1" parent="1" target="FfIghp_C7iLB7WoV9WGp-209">
          <mxGeometry width="50" height="50" relative="1" as="geometry">
            <mxPoint x="565" y="500" as="sourcePoint" />
            <mxPoint x="925" y="820" as="targetPoint" />
            <Array as="points">
              <mxPoint x="565" y="570" />
            </Array>
          </mxGeometry>
        </mxCell>
        <mxCell id="FfIghp_C7iLB7WoV9WGp-217" value="" style="endArrow=classic;html=1;rounded=0;entryX=0.5;entryY=0;entryDx=0;entryDy=0;" edge="1" parent="1" target="FfIghp_C7iLB7WoV9WGp-210">
          <mxGeometry width="50" height="50" relative="1" as="geometry">
            <mxPoint x="760" y="500" as="sourcePoint" />
            <mxPoint x="785" y="480" as="targetPoint" />
          </mxGeometry>
        </mxCell>
        <mxCell id="FfIghp_C7iLB7WoV9WGp-218" value="" style="endArrow=classic;html=1;rounded=0;entryX=1;entryY=0.5;entryDx=0;entryDy=0;" edge="1" parent="1" target="FfIghp_C7iLB7WoV9WGp-211">
          <mxGeometry width="50" height="50" relative="1" as="geometry">
            <mxPoint x="885" y="510" as="sourcePoint" />
            <mxPoint x="1005" y="585" as="targetPoint" />
            <Array as="points">
              <mxPoint x="885" y="580" />
            </Array>
          </mxGeometry>
        </mxCell>
        <mxCell id="FfIghp_C7iLB7WoV9WGp-219" value="" style="endArrow=classic;html=1;rounded=0;entryX=0;entryY=0.5;entryDx=0;entryDy=0;" edge="1" parent="1" target="FfIghp_C7iLB7WoV9WGp-212">
          <mxGeometry width="50" height="50" relative="1" as="geometry">
            <mxPoint x="555" y="780" as="sourcePoint" />
            <mxPoint x="675" y="765" as="targetPoint" />
            <Array as="points">
              <mxPoint x="555" y="680" />
            </Array>
          </mxGeometry>
        </mxCell>
        <mxCell id="FfIghp_C7iLB7WoV9WGp-220" value="" style="endArrow=classic;html=1;rounded=0;entryX=1;entryY=0.5;entryDx=0;entryDy=0;" edge="1" parent="1" target="FfIghp_C7iLB7WoV9WGp-214">
          <mxGeometry width="50" height="50" relative="1" as="geometry">
            <mxPoint x="905" y="795" as="sourcePoint" />
            <mxPoint x="1035" y="690" as="targetPoint" />
            <Array as="points">
              <mxPoint x="905" y="695" />
            </Array>
          </mxGeometry>
        </mxCell>
        <mxCell id="FfIghp_C7iLB7WoV9WGp-221" value="" style="endArrow=classic;html=1;rounded=0;entryX=0.5;entryY=1;entryDx=0;entryDy=0;" edge="1" parent="1" target="FfIghp_C7iLB7WoV9WGp-213">
          <mxGeometry width="50" height="50" relative="1" as="geometry">
            <mxPoint x="760" y="770" as="sourcePoint" />
            <mxPoint x="755" y="760" as="targetPoint" />
          </mxGeometry>
        </mxCell>
        <mxCell id="FfIghp_C7iLB7WoV9WGp-222" value="Early Start" style="text;html=1;strokeColor=none;fillColor=none;align=center;verticalAlign=middle;whiteSpace=wrap;rounded=0;" vertex="1" parent="1">
          <mxGeometry x="535" y="460" width="60" height="30" as="geometry" />
        </mxCell>
        <mxCell id="FfIghp_C7iLB7WoV9WGp-223" value="Duration" style="text;html=1;strokeColor=none;fillColor=none;align=center;verticalAlign=middle;whiteSpace=wrap;rounded=0;" vertex="1" parent="1">
          <mxGeometry x="725" y="470" width="60" height="30" as="geometry" />
        </mxCell>
        <mxCell id="FfIghp_C7iLB7WoV9WGp-224" value="Early Finish" style="text;html=1;strokeColor=none;fillColor=none;align=center;verticalAlign=middle;whiteSpace=wrap;rounded=0;" vertex="1" parent="1">
          <mxGeometry x="855" y="470" width="60" height="30" as="geometry" />
        </mxCell>
        <mxCell id="FfIghp_C7iLB7WoV9WGp-225" value="Late Start" style="text;html=1;strokeColor=none;fillColor=none;align=center;verticalAlign=middle;whiteSpace=wrap;rounded=0;" vertex="1" parent="1">
          <mxGeometry x="525" y="780" width="60" height="30" as="geometry" />
        </mxCell>
        <mxCell id="FfIghp_C7iLB7WoV9WGp-226" value="Float" style="text;html=1;strokeColor=none;fillColor=none;align=center;verticalAlign=middle;whiteSpace=wrap;rounded=0;" vertex="1" parent="1">
          <mxGeometry x="735" y="770" width="60" height="30" as="geometry" />
        </mxCell>
        <mxCell id="FfIghp_C7iLB7WoV9WGp-227" value="Late Finish" style="text;html=1;strokeColor=none;fillColor=none;align=center;verticalAlign=middle;whiteSpace=wrap;rounded=0;" vertex="1" parent="1">
          <mxGeometry x="875" y="800" width="60" height="30" as="geometry" />
        </mxCell>
      </root>
    </mxGraphModel>
  </diagram>
</mxfile>
